<svg xmlns="http://www.w3.org/2000/svg" version="1.1" xmlns:xlink="http://www.w3.org/1999/xlink" xmlns:svgjs="http://svgjs.dev/svgjs" width="1000" height="1000" viewBox="0 0 1000 1000"><rect width="1000" height="1000" fill="#000000"></rect><g transform="matrix(0.7,0,0,0.7,149.57575763320273,438.7941606132299)"><svg viewBox="0 0 396 70" data-background-color="#ffffff" preserveAspectRatio="xMidYMid meet" height="176" width="1000" xmlns="http://www.w3.org/2000/svg" xmlns:xlink="http://www.w3.org/1999/xlink"><g id="tight-bounds" transform="matrix(1,0,0,1,0.24000003249750534,-0.22395489388065926)"><svg viewBox="0 0 395.52 70.44790978776132" height="70.44790978776132" width="395.52"><g><svg viewBox="0 0 572.9019444083793 102.04223426606634" height="70.44790978776132" width="395.52"><g transform="matrix(1,0,0,1,0,14.102797934022199)"><svg viewBox="0 0 395.52 73.83663839802195" height="73.83663839802195" width="395.52"><g id="textblocktransform"><svg viewBox="0 0 395.52 73.83663839802195" height="73.83663839802195" width="395.52" id="textblock"><g><svg viewBox="0 0 395.52 73.83663839802195" height="73.83663839802195" width="395.52"><g transform="matrix(1,0,0,1,0,0)"><svg width="395.52" viewBox="2.700000047683716 -37 200.33021423339844 37.400001525878906" height="73.83663839802195" data-palette-color="#192f82"><g transform="matrix(1,0,0,1,0,0)"><g><svg width="16.793476562499997" viewBox="1.7799999713897705 -36.36000061035156 74.20999908447266 36.36000061035156" height="8.228" data-palette-color="#192f82" id="scriptelement" x="186.236732711792" y="-37"><path d="M12.91-30.02L1.78-30.02 1.78-36.36 31.64-36.36 31.64-30.02 20.51-30.02 20.51 0 12.91 0 12.91-30.02ZM36.57 0L36.57-36.36 46.06-36.36 56.07-11.93 56.5-11.93 66.51-36.36 75.99-36.36 75.99 0 68.53 0 68.53-23.67 68.23-23.67 58.82-0.18 53.74-0.18 44.33-23.76 44.03-23.76 44.03 0 36.57 0Z" opacity="1" transform="matrix(1,0,0,1,0,0)" fill="#192f82" class="undefined-123" id="p-123"></path></svg></g></g><path d="M14.25 0.35Q10.85 0.35 8.3-0.85 5.75-2.05 4.33-4.1 2.9-6.15 2.7-8.65L2.7-8.65 5.05-8.65Q5.45-5.9 7.63-3.75 9.8-1.6 14.25-1.6L14.25-1.6Q16.85-1.6 18.78-2.55 20.7-3.5 21.75-5.15 22.8-6.8 22.8-8.8L22.8-8.8Q22.8-11.35 21.58-12.85 20.35-14.35 18.53-15.1 16.7-15.85 13.6-16.7L13.6-16.7Q10.2-17.6 8.13-18.5 6.05-19.4 4.63-21.28 3.2-23.15 3.2-26.4L3.2-26.4Q3.2-28.9 4.53-30.98 5.85-33.05 8.3-34.25 10.75-35.45 13.95-35.45L13.95-35.45Q18.6-35.45 21.45-33.15 24.3-30.85 24.85-27.5L24.85-27.5 22.45-27.5Q22.15-28.85 21.13-30.25 20.1-31.65 18.23-32.58 16.35-33.5 13.75-33.5L13.75-33.5Q10.25-33.5 7.85-31.58 5.45-29.65 5.45-26.45L5.45-26.45Q5.45-23.9 6.7-22.38 7.95-20.85 9.78-20.08 11.6-19.3 14.7-18.5L14.7-18.5Q18.15-17.55 20.18-16.68 22.2-15.8 23.63-13.93 25.05-12.05 25.05-8.85L25.05-8.85Q25.05-6.5 23.8-4.4 22.55-2.3 20.13-0.98 17.7 0.35 14.25 0.35L14.25 0.35ZM43.2-25.2L35.15-25.2 35.15-7.25Q35.15-4.25 36.25-3.13 37.35-2 40.15-2L40.15-2 43.2-2 43.2 0 39.8 0Q36.25 0 34.57-1.68 32.9-3.35 32.9-7.25L32.9-7.25 32.9-25.2 28.8-25.2 28.8-27.15 32.9-27.15 32.9-34.05 35.15-34.05 35.15-27.15 43.2-27.15 43.2-25.2ZM61.09 0.4Q57.3 0.4 54.25-1.3 51.2-3 49.47-6.18 47.75-9.35 47.75-13.6L47.75-13.6Q47.75-17.8 49.5-20.98 51.25-24.15 54.32-25.83 57.4-27.5 61.2-27.5L61.2-27.5Q65-27.5 68.05-25.83 71.09-24.15 72.82-21 74.55-17.85 74.55-13.6L74.55-13.6Q74.55-9.35 72.8-6.18 71.05-3 67.97-1.3 64.9 0.4 61.09 0.4L61.09 0.4ZM61.09-1.6Q64.05-1.6 66.62-2.93 69.2-4.25 70.75-6.95 72.3-9.65 72.3-13.6L72.3-13.6Q72.3-17.5 70.75-20.2 69.2-22.9 66.65-24.23 64.09-25.55 61.15-25.55L61.15-25.55Q58.2-25.55 55.67-24.23 53.15-22.9 51.59-20.2 50.05-17.5 50.05-13.6L50.05-13.6Q50.05-9.65 51.57-6.95 53.09-4.25 55.62-2.93 58.15-1.6 61.09-1.6L61.09-1.6ZM79.99-13.6Q79.99-17.85 81.67-21 83.34-24.15 86.32-25.83 89.29-27.5 93.14-27.5L93.14-27.5Q98.24-27.5 101.52-24.95 104.79-22.4 105.59-18.1L105.59-18.1 103.24-18.1Q102.59-21.6 99.87-23.6 97.14-25.6 93.14-25.6L93.14-25.6Q90.14-25.6 87.69-24.28 85.24-22.95 83.77-20.23 82.29-17.5 82.29-13.6L82.29-13.6Q82.29-9.65 83.77-6.95 85.24-4.25 87.69-2.9 90.14-1.55 93.14-1.55L93.14-1.55Q97.14-1.55 99.87-3.55 102.59-5.55 103.24-9.05L103.24-9.05 105.59-9.05Q104.79-4.8 101.49-2.2 98.19 0.4 93.14 0.4L93.14 0.4Q89.29 0.4 86.32-1.3 83.34-3 81.67-6.18 79.99-9.35 79.99-13.6L79.99-13.6ZM129.64 0L126.54 0 114.69-12.45 114.69 0 112.44 0 112.44-37 114.69-37 114.69-14.85 126.34-27.15 129.49-27.15 116.34-13.65 129.64 0ZM158.74-15.4Q158.74-13.6 158.64-12.7L158.64-12.7 135.19-12.7Q135.29-9.05 136.79-6.55 138.29-4.05 140.74-2.8 143.19-1.55 146.09-1.55L146.09-1.55Q150.09-1.55 152.79-3.53 155.49-5.5 156.19-8.9L156.19-8.9 158.54-8.9Q157.74-4.75 154.44-2.18 151.14 0.4 146.09 0.4L146.09 0.4Q142.29 0.4 139.29-1.3 136.29-3 134.59-6.18 132.89-9.35 132.89-13.6L132.89-13.6Q132.89-17.85 134.56-21 136.24-24.15 139.24-25.83 142.24-27.5 146.09-27.5L146.09-27.5Q149.99-27.5 152.86-25.83 155.74-24.15 157.24-21.38 158.74-18.6 158.74-15.4L158.74-15.4ZM156.49-14.55Q156.64-18.15 155.21-20.65 153.79-23.15 151.34-24.38 148.89-25.6 146.04-25.6L146.04-25.6Q143.19-25.6 140.76-24.38 138.34-23.15 136.81-20.65 135.29-18.15 135.19-14.55L135.19-14.55 156.49-14.55ZM167.78-21.55Q168.78-24.55 171.34-26.13 173.88-27.7 177.84-27.7L177.84-27.7 177.84-25.35 177.09-25.35Q173.09-25.35 170.44-23.08 167.78-20.8 167.78-15.65L167.78-15.65 167.78 0 165.53 0 165.53-27.15 167.78-27.15 167.78-21.55Z" opacity="1" transform="matrix(1,0,0,1,0,0)" fill="#ffffff" class="undefined-text-0" data-fill-palette-color="primary" id="text-0"></path></svg></g></svg></g></svg></g></svg></g><g transform="matrix(1,0,0,1,412.9510582464514,0)"><svg viewBox="0 0 159.95088616192794 102.04223426606634" height="102.04223426606634" width="159.95088616192794"><g><svg xmlns="http://www.w3.org/2000/svg" xmlns:xlink="http://www.w3.org/1999/xlink" version="1.1" x="0" y="0" viewBox="8 24 83.83600616455078 53.48400115966797" enable-background="new 0 0 100 100" xml:space="preserve" height="102.04223426606634" width="159.95088616192794" class="icon-icon-0" data-fill-palette-color="accent" id="icon-0"><path d="M83.924 24c-4.363 0-7.913 3.55-7.913 7.913 0 1.461 0.405 2.825 1.098 4.001L64.486 48.536c-1.13-0.622-2.426-0.978-3.804-0.978-3.191 0-5.942 1.903-7.192 4.631L41.195 49.8c-0.803-3.519-3.951-6.154-7.709-6.154-4.363 0-7.913 3.55-7.913 7.913 0 1.309 0.325 2.543 0.89 3.631l-7.214 7.216c-1.016-0.475-2.143-0.747-3.335-0.747C11.55 61.658 8 65.208 8 69.571s3.55 7.913 7.913 7.913c4.364 0 7.914-3.55 7.914-7.913 0-1.207-0.279-2.347-0.765-3.371l7.35-7.351c0.945 0.4 1.984 0.622 3.074 0.622 3.07 0 5.73-1.76 7.042-4.32l12.538 2.437c0.929 3.337 3.988 5.797 7.617 5.797 4.363 0 7.913-3.55 7.913-7.913 0-1.019-0.2-1.989-0.553-2.885l13.229-13.228c0.83 0.296 1.721 0.467 2.651 0.467 4.363 0 7.913-3.55 7.913-7.913S88.287 24 83.924 24zM15.913 72.104c-1.397 0-2.533-1.137-2.533-2.533 0-1.397 1.136-2.533 2.533-2.533 1.397 0 2.534 1.136 2.534 2.533C18.447 70.968 17.311 72.104 15.913 72.104zM33.486 54.092c-1.397 0-2.534-1.137-2.534-2.533 0-1.397 1.137-2.533 2.534-2.533s2.534 1.136 2.534 2.533C36.02 52.955 34.883 54.092 33.486 54.092zM60.683 58.005c-1.397 0-2.533-1.137-2.533-2.533 0-1.397 1.136-2.533 2.533-2.533 1.396 0 2.533 1.136 2.533 2.533C63.216 56.868 62.079 58.005 60.683 58.005zM83.924 34.446c-1.397 0-2.533-1.136-2.533-2.533s1.136-2.533 2.533-2.533c1.396 0 2.533 1.136 2.533 2.533S85.32 34.446 83.924 34.446z" fill="#ffffff" data-fill-palette-color="accent"></path></svg></g></svg></g></svg></g><defs></defs></svg><rect width="395.52" height="70.44790978776132" fill="none" stroke="none" visibility="hidden"></rect></g></svg></g></svg>